<svg id="Layer_1" data-name="Layer 1" xmlns="http://www.w3.org/2000/svg" viewBox="0 0 651.43 369.85"><path d="M458.3,155.83c-8,0-17.24,2.3-23.27,12.35-4.88-8.62-13.64-12.35-23.7-12.35a22.61,22.61,0,0,0-19.1,10.48v-9h-22v65.34l-26.14-65.34h-25L297,212.55V186.42c0-21.69-14.51-30.59-28.15-30.59-11.63,0-17.52,5.31-21.69,10.48v-9H204.1l-17.52,46-17.52-46H148.67V121.36H127v45c-2.86-5.31-9.19-10.48-21.54-10.48-16.8,0-34.33,13.5-34.33,37.48,0,24.28,17.24,37.2,34.33,37.2,12.35,0,18.68-5.17,21.54-10.48v9.05h21.69V165.54l25.42,63.54h25l26.13-65.33v65.33h22V194.32c0-12.06,6.47-18.38,15.52-18.38,9.76,0,12.35,7.75,12.35,16.8v36.34h39.06l17.52-46,17.52,46h43.08V194.47c0-13.65,6.46-18.53,14.08-18.53,9,0,10.91,7.46,10.91,15.36v37.78h22V194.47c0-13.65,6.18-18.53,13.36-18.53,9.77,0,11.64,8.33,11.64,19.1v34h22V186.42C486.16,164.73,473.81,155.83,458.3,155.83ZM110.18,210.55c-9.33,0-16.94-6.89-16.94-17.24,0-10.62,7.61-17.52,16.94-17.52s16.52,6.9,16.52,17.52C126.7,203.66,119.52,210.55,110.18,210.55Z"/><path d="M581.35,207.68c0,12.35-9.76,22.83-31.31,22.83-14.62,0-26.17-5.46-33.32-15.2v13.77h-22V157.27h22v53.67l14.51-9.58a22.27,22.27,0,0,0,20,12.21c5.6,0,9-2,9-4.6,0-3.59-6.18-5.17-13.36-7.18C531.37,197.33,520,191.45,520,179.24c0-13.79,13.36-23.13,30.17-23.13,13.07,0,24.12,4.89,31.74,17.1L566.85,184.7c-2.59-7.76-10.49-11.78-18.39-11.78-6,0-8,2.44-8,4.45,0,4,5.31,4.89,15.65,7.61C574.6,190,581.35,196.62,581.35,207.68Z"/><rect x="191.15" y="283.25" width="17.19" height="23.96"/><path d="M161,307.21h17.19c.47-4.44-.86-15.77.38-24H161Z"/><path d="M82,284.6c.79,14.08-17.88,14.15-17.1,0,0-.46,0-.91,0-1.35H47.59c0,.4,0,.79.07,1.2-1.87,24,27.85,34,31.52,11.93H82v10.83h17.2v-24H82C82,283.69,82,284.14,82,284.6Z"/><path d="M234.52,283.25H217.09c-.11.18-.22.36-.32.56-1.83,2.79-4,4.69-4.22,11-.89,17.08,28,18.44,28.41,1.11h2.87v11.39H261v-24H243.84C244.84,302.78,221.88,295.78,234.52,283.25Z"/><path d="M267.7,307.21H285c.54-4.08-.84-15.63.22-24H267.7Z"/><path d="M131.8,296.06h-3.07a59.74,59.74,0,0,0-1.64-12.81H109.67l8.51,24h24.27l8.25-24h-17A56,56,0,0,0,131.8,296.06Z"/><path d="M36.44,345.23a6.56,6.56,0,0,1-4.63,11.19H21.1a6.56,6.56,0,0,1-4.64-11.19,7,7,0,0,1,.95-.79H0v17a8.44,8.44,0,0,0,2.16,6.23,8.42,8.42,0,0,0,6.23,2.16H53V344.44H35.5A6.91,6.91,0,0,1,36.44,345.23Z"/><path d="M85.67,350.43a3.12,3.12,0,0,1-5.75,0l-3.08-6h-17l10.13,20a9.47,9.47,0,0,0,8.87,5.44h8a9.65,9.65,0,0,0,5.48-1.48,10.51,10.51,0,0,0,3.47-4l10.13-20H88.75Z"/><path d="M72.82,314.63q-1.09,9.31-3.26,13t-5,3.65a4.6,4.6,0,0,1-3.26-1.32,11.22,11.22,0,0,1-2.49-4.43,40.31,40.31,0,0,1-1.71-8.15c-.11-.88-.21-1.82-.3-2.81H49c.15,1.87.33,3.61.55,5.21a34.05,34.05,0,0,1-3.73,8.78c-1.24,1.82-2.69,2.72-4.35,2.72q-4.35,0-7.38-7.38a38,38,0,0,1-2.22-9.33H23.54q.53,9.84,3.29,16.17,3.41,7.85,10.25,7.84c2.17,0,4.35-1.39,6.52-4.19s4.2-7.09,6.07-12.9q1.23,9.8,3.8,13.36a7.93,7.93,0,0,0,6.76,3.58,6.57,6.57,0,0,0,4-1.79,18.3,18.3,0,0,0,4-5,41.57,41.57,0,0,0,3.34-7.46,54.63,54.63,0,0,0,2.26-9.4,2,2,0,0,0,0-.24H72.84A.24.24,0,0,0,72.82,314.63Z"/><path d="M108.09,323.17a22.61,22.61,0,0,1-3.73,6.22,1.74,1.74,0,0,1-1.09.62,1.35,1.35,0,0,1-.93-.47q-1.87-2.18-3.19-8.85c-.38-1.93-.74-4-1.1-6.15H89.62c.36,2.59.73,5.07,1.14,7.39a98.65,98.65,0,0,0,2.18,9.86q1.16,4.13,2.72,5.68a3,3,0,0,0,2,1.08,3.76,3.76,0,0,0,2.17-.77q1.86-1.39,5.21-6.84a97.34,97.34,0,0,0,6.68-13.52c.39-.94.76-1.9,1.13-2.88h-2.26A48.16,48.16,0,0,1,108.09,323.17Z"/><path d="M141.33,321.54q-.15,5.06-.38,8.86c-.16,2.54-.29,4.32-.4,5.36a10.85,10.85,0,0,0-.07,2.17c.05.31.18.47.39.47.41,0,1-.37,1.71-1.09.41-.41.95-1,1.63-1.71a15.57,15.57,0,0,0,1.94-2.64,21.86,21.86,0,0,0,1.71-3.65,13.55,13.55,0,0,0,.77-4.74q.26-5.18.61-10h-7.67C141.48,317,141.4,319.34,141.33,321.54Z"/><path d="M184.06,325.74q-2.49,5.36-5.44,5.36-2.79,0-4.12-3.81t-1.31-12.2v-.55h-7.92c0,.7,0,1.4,0,2.11q0,11.64,2.1,16.7t6.44,5q2,0,4.43-2.33a25.85,25.85,0,0,0,4.51-6.14,52.54,52.54,0,0,0,3.73-8.7,44.15,44.15,0,0,0,1.65-6.69h-1.27A37.6,37.6,0,0,1,184.06,325.74Z"/><path d="M109,268.1a17,17,0,0,1-4.84,2.52,17.84,17.84,0,0,1-5.66.88q-8.17,0-12.88-5.72Q81.43,260.67,81,252H71.11v0q0,10.77,6.27,17.66a20.93,20.93,0,0,0,16.22,6.88A23.55,23.55,0,0,0,102,275a28,28,0,0,0,7.83-4.56,27.35,27.35,0,0,0,.48,2.79c.23,1.05.48,2.06.75,3.07q8-1.23,11.18-1.57a56,56,0,0,1,6.13-.34v-.14c-4-.18-6.72-1.29-8.18-3.34s-2.09-5.7-1.91-11q.08-3.72.17-8h-8.66C109.52,258.91,109.26,264.3,109,268.1Z"/><path d="M154,264.42c-1.74-4.63-3.25-8.78-4.56-12.46h-8.59c.88,2.27,1.83,4.82,2.86,7.69q2.24,6.27,6.06,16.49a11.74,11.74,0,0,1,2.11-.75,20.18,20.18,0,0,1,2.25-.48q1.77-4.35,5.32-13.63,2.15-5.61,3.59-9.32h-4.21Q156.72,257.44,154,264.42Z"/><path d="M185.61,265a33.93,33.93,0,0,1-1.16,7.91,2.83,2.83,0,0,1-2.38,2.18v.14c2.45-.19,6-.23,10.63-.14s7.63.14,9,.14v-.14q-3.81-.14-5.24-2.45T195,263.74c-.08-2.4,0-6.34.17-11.78h-8.76C186.21,257.61,185.93,262,185.61,265Z"/><path d="M217.23,255q-.4,8.87-.54,13.09c-.09,2.82-.14,5.22-.14,7.22l2.18-.27a17.85,17.85,0,0,1,2.18-.14h1.3c.5,0,1.43,0,2.79.14,2.37.18,4.11.27,5.25.27h2.93v-.13q-3.94,0-5.52-2.39t-1.7-9.06c0-1.37,0-3.18.06-5.46,0-1.51.08-3.63.13-6.32h-8.8C217.31,252.91,217.27,253.92,217.23,255Z"/><path d="M268.69,257.74q-.21,5.31-.48,8.59a10,10,0,0,1-4.09,3.2,13.55,13.55,0,0,1-5.59,1.16q-4.77,0-7.42-2.39a8.57,8.57,0,0,1-2.66-6.75,8,8,0,0,1,2-5.79q2.06-2.12,7.36-3.61l.66-.19H247.05a15.26,15.26,0,0,0-3.64,2.37,13.09,13.09,0,0,0,.06,18.54q3.89,3.4,10.43,3.41a18.87,18.87,0,0,0,8-1.78,22.62,22.62,0,0,0,7.09-5.31,27.41,27.41,0,0,0,1.16,4.43,16.79,16.79,0,0,0,1.84,3.75,53.46,53.46,0,0,1,7.36-2.87,50.47,50.47,0,0,1,8.31-2.18v-.13c-3.72.45-6.36-.05-7.9-1.5s-2.32-5.09-2.32-10.91V254.4c0-.69,0-1.51,0-2.44h-8.62C268.83,254,268.76,255.9,268.69,257.74Z"/><path d="M326.21,252.49q-.48,8.92-1,13.43c-.46,3.45-1.07,5.84-1.84,7.15a4,4,0,0,1-3.34,2.12v.13c.54,0,1.13,0,1.77-.07l2.73-.2,3-.2c.63-.05,1.18-.07,1.63-.07s.82,0,1.37.07l2.86.2,5.45.2c1.18.05,2.18.07,3,.07v-.13q-4,0-5.59-2.46t-1.64-9c-.08-2.82,0-6.76.11-11.78h-8.46Z"/><path d="M295.61,265a33.93,33.93,0,0,1-1.16,7.91,2.83,2.83,0,0,1-2.38,2.18v.14c2.45-.19,6-.23,10.63-.14s7.63.14,9,.14v-.14q-3.82-.14-5.25-2.45c-1-1.55-1.43-4.5-1.43-8.86q-.13-3.5.13-11.78h-8.83C296.1,257.79,295.87,262.14,295.61,265Z"/><path d="M355.72,255q-.41,8.87-.54,13.09c-.09,2.82-.14,5.22-.14,7.22l2.32-.27a21.33,21.33,0,0,1,2.32-.14H361c.54,0,1.45,0,2.73.14,2.27.18,4,.27,5.11.27h2.93v-.13q-4,0-5.59-2.39t-1.77-9.06c0-1.37,0-3.16.07-5.39,0-1.52.09-3.66.18-6.39h-8.87C355.8,252.91,355.76,253.92,355.72,255Z"/><path d="M382.71,265c-.36,3.64-1,6.18-1.84,7.64a5,5,0,0,1-4,2.45v.14q4-.29,12.2-.14t10.29.14v-.14c-2.73-.09-4.63-.91-5.72-2.45s-1.64-4.5-1.64-8.86q-.09-4.12.11-11.78h-8.72Q383.07,260.33,382.71,265Z"/><path d="M423.2,253q6.94,2,9.54,4a6.57,6.57,0,0,1,2.59,5.52,9.18,9.18,0,0,1-3.41,7.36,12.89,12.89,0,0,1-8.59,2.86,16.83,16.83,0,0,1-11.18-3.88,14.39,14.39,0,0,1-5.31-9.61h-.14c0,1.09.05,2.27.14,3.54s.18,3.09.27,5.45q.13,1.92.21,2.73c0,.54.06,1.05.06,1.5a36,36,0,0,0,8,3.07,31.87,31.87,0,0,0,7,.75q9,0,14.72-5.12a16.38,16.38,0,0,0,5.72-12.74,13.21,13.21,0,0,0-1.46-6.46H420C421,252.3,422.06,252.64,423.2,253Z"/><path d="M358.7,89.72c2.94,0,5.73,1.85,5.73,6.64v6.42H382.6V92.58c0-11-5.47-16.66-14.73-16.66-7.49,0-14.13,4.12-14.13,12.87h-3V77.1H332.54v25.68h18.19C351.3,95.45,353.2,89.38,358.7,89.72Z"/><rect x="530.32" y="77.18" width="18.17" height="25.6"/><path d="M410.43,99.31,420.11,91v8.33a23.21,23.21,0,0,1-.05,3.47h18.22V77.18H388V91.31H411v3.54c-6.51.26-15.89-1.76-19.52,5.21-.62.94-1.26,1.79-1.87,2.72h18A17.56,17.56,0,0,1,410.43,99.31Z"/><path d="M470.41,89.72c2.44,0,5,1.59,5,5.8v7.26h18.19c.43-7.22,2-13.25,6.88-13.06,2.44,0,5,1.59,5,5.8v7.26h18.26V92.58c0-11-5.39-16.66-14.14-16.66-7.31,0-13.71,4-13.71,12.87h-2.44c-.83-17-26.74-17.47-26.75,0h-3V77.1H445.35v25.68h18.18C464,95.56,465.58,89.53,470.41,89.72Z"/><path d="M579.77,93.33c-7.06,0-9.85-.07-9.85-2.26.71-5.4,18.58-3.54,19.86,2l14.89-7.4C600.72,80,591.05,75.5,578.42,75.5c-24.3-.19-30.53,18.74-19.31,27.28h45.08C601,96.54,592.69,91.88,579.77,93.33Z"/><path d="M424.06,67.39a24.07,24.07,0,0,1,1-7.14,20.18,20.18,0,0,1,2.46-5.42,12.41,12.41,0,0,1,3.29-3.45,6.17,6.17,0,0,1,3.44-1.24,7.23,7.23,0,0,1,6.9,4.11q2.13,4.11,2.47,14.29c0,.36,0,.72,0,1.07H452c0-1.21,0-2.4,0-3.53q-.17-11.67-3-17.09t-8-5.42a12.19,12.19,0,0,0-6.66,2.06,22.22,22.22,0,0,0-5.74,5.42,27.5,27.5,0,0,0-4,7.63,26.61,26.61,0,0,0-1.48,8.71,20.35,20.35,0,0,0,.14,2.22h1A20.21,20.21,0,0,1,424.06,67.39Z"/><path d="M487,60.33q0-8.7-1.73-12.65t-5-3.94a4.51,4.51,0,0,0-3.12,1.4,12.76,12.76,0,0,0-2.54,3.44,21.54,21.54,0,0,0-1.73,4.6,19.94,19.94,0,0,0-.66,5c0,.55.22.82.66.82s.66-.27.66-.82a36.32,36.32,0,0,1,.33-5.75c.21-1.31.76-2,1.64-2s1.86.93,2.62,2.79,1.15,5.15,1.15,9.86c0,2,0,4.14,0,6.49h7.64C486.92,66.54,487,63.45,487,60.33Z"/><path d="M516.86,63.12a64.38,64.38,0,0,1,3-9.2c1.09-2.62,2.46-3.94,4.1-3.94q1.82,0,3.45,2.71T529,63.12c0,1.78,0,4-.11,6.49h8.23c.06-2.19.09-4.2.09-6q0-11.32-2.54-15.77T528,43.41q-2.62,0-5,2.71a27.39,27.39,0,0,0-4.52,8.62,104.27,104.27,0,0,0-3.88,14.87h.76C515.85,67.29,516.34,65.12,516.86,63.12Z"/><path d="M491.89,63.12a65.68,65.68,0,0,1,3-9.2C495.94,51.3,497.31,50,499,50q1.8,0,3.44,2.71t1.65,10.43c0,2,0,4.14,0,6.49h7.7c0-2.08.05-4.09.05-6q0-11.32-2.29-15.77c-1.54-3-3.67-4.43-6.41-4.43q-2.62,0-5,2.71a27.4,27.4,0,0,0-4.51,8.62,103,103,0,0,0-3.88,14.87h.76C490.89,67.29,491.38,65.12,491.89,63.12Z"/><path d="M572.21,58.52a43.6,43.6,0,0,0-1.07-10.76q-1.07-4-4.35-4a5,5,0,0,0-3.37,1.4,13.66,13.66,0,0,0-2.79,3.61,22.41,22.41,0,0,0-2,4.84,18.93,18.93,0,0,0-.74,5.09q0,1,.66,1a1,1,0,0,0,.49-.25.86.86,0,0,0,.33-.74c0-2,.08-3.83.24-5.58s.64-2.63,1.4-2.63q1.49,0,2.22,2.88a44.57,44.57,0,0,1,.74,9.77c0,1-.09,3.19-.26,6.49H572C572.15,65.29,572.21,61.58,572.21,58.52Z"/><path d="M601.12,67.72a27.51,27.51,0,0,1,1-7.47,22.34,22.34,0,0,1,2.63-6.08,14.63,14.63,0,0,1,3.7-4,7.09,7.09,0,0,1,4.18-1.47q4.27,0,6.33,2.38a9.14,9.14,0,0,1,2,6.16,8.1,8.1,0,0,1-.65,3.28c-.45,1-.83,1.75-1.15,2.3s-.17.82.49.5a21,21,0,0,0,6-5.75,11.47,11.47,0,0,0,2.22-6.41,8.4,8.4,0,0,0-2.22-6.08q-2.22-2.29-6.81-2.3c-2.2,0-4.63,1.1-7.31,3.29a46.39,46.39,0,0,0-7.72,8.21A50.5,50.5,0,0,0,597.67,65a35.36,35.36,0,0,0-1.58,4.6h5.08C601.14,69,601.12,68.38,601.12,67.72Z"/><path d="M507.72,30.67A6.34,6.34,0,0,1,509.37,26a6.34,6.34,0,0,1,4.69-1.65h4.22A6.34,6.34,0,0,1,523,26a6.34,6.34,0,0,1,1.65,4.69V37h17.23V30.67A6.34,6.34,0,0,1,543.5,26a6.34,6.34,0,0,1,4.69-1.65h4.31A6.35,6.35,0,0,1,557.19,26a6.38,6.38,0,0,1,1.64,4.69V37h17.24V19q0-4.31-2.28-6.59t-6.59-2.28H490.49V37h17.23Z"/><rect x="578.35" y="18.59" width="17.24" height="18.41"/><path d="M584.26,13.43h5.41a7.79,7.79,0,0,0,5.45-1.73A6.22,6.22,0,0,0,597,6.84V6.59a6.21,6.21,0,0,0-1.9-4.9A7.92,7.92,0,0,0,589.67,0h-5.41a7.94,7.94,0,0,0-5.45,1.69,6.24,6.24,0,0,0-1.9,4.9v.25a6.25,6.25,0,0,0,1.9,4.86A7.8,7.8,0,0,0,584.26,13.43Z"/><path d="M651.43,35.23q0-8.61-8.87-8.62H618.39a2.8,2.8,0,0,1-2.07-.8,2.86,2.86,0,0,1,0-4,2.8,2.8,0,0,1,2.07-.8h33V19q0-4.31-2.28-6.59t-6.59-2.28H606a9.08,9.08,0,0,0-6.63,2.28Q597,14.7,597,19v7.86q0,4.3,2.28,6.59t6.59,2.28h24.59a2.76,2.76,0,0,1,2.06.8,2,2,0,0,1,.37.46h18.52Z"/><path d="M265.73,115a5.62,5.62,0,0,1,1-3.67,4.05,4.05,0,0,1,3-1.37v-.15c-.19,0-1.68.07-4.46.22s-5.14.21-7.06.21H257c-.53,0-1.42,0-2.66-.14-1.93-.09-3.29-.14-4.11-.14h-1.8v.14c1.82.1,3.58,1.85,5.26,5.26s4.24,9.8,7.92,19.6h9.27c-.95-2.79-1.76-5.27-2.42-7.42Q265.72,118.59,265.73,115Z"/><path d="M298.58,109.8q-4.47.15-6.91.15c-1.64,0-3.17,0-4.62-.15V110a3.35,3.35,0,0,1,3.46,3.74q0,3.18-2.95,11.67-1.32,3.8-3.5,9.59h4.52q6-15.22,9.07-20.1t6.26-4.9v-.15h-5.33Z"/><path d="M339.21,108.51a25.54,25.54,0,0,0-7.78,1.29,58.79,58.79,0,0,0-9.79,4.47V111a14.2,14.2,0,0,1,.14-2.09,6.64,6.64,0,0,0-1.15.14c-.48.1-1.35.29-2.6.58q-4.61.86-7.06,1.22c-1.63.24-3,.41-4.18.51v.14a4.56,4.56,0,0,1,3.89,2.67c.77,1.58,1.16,4.3,1.16,8.14q.12,3.94-.14,12.61H321q.31-8.19.8-17.94a30.21,30.21,0,0,1,6.12-2.16,27.05,27.05,0,0,1,6.13-.72q5.33,0,8,3t2.66,8.72c0,1.44-.05,3.29-.14,5.55,0,.93-.09,2.14-.15,3.6h9.22v-.22q.15-5.19.22-7.35c.05-1.44.07-2.59.07-3.46q0-7.48-3.82-11.45T339.21,108.51Z"/><path d="M404.06,111.68q-4-3-12.4-3a47.08,47.08,0,0,0-14.33,2.09c-4.38,1.39-6.56,3.05-6.56,5a3.63,3.63,0,0,0,1.37,2.88,4.67,4.67,0,0,0,3.1,1.16,5.56,5.56,0,0,0,2.38-.51,13.64,13.64,0,0,0,2.66-1.8,15.75,15.75,0,0,0,1.8-1.66,20.09,20.09,0,0,1,2.38-2.09,7.37,7.37,0,0,1,2.52-1.22,11.58,11.58,0,0,1,2.95-.36,7.68,7.68,0,0,1,6.85,3.31q2.24,3.31,2.23,10.23v4.47a8,8,0,0,1-4.32,4.18,19.12,19.12,0,0,1-1.81.65h15c0-.88,0-1.82.06-2.81q.14-5.19.14-7.42V121C408.09,116.82,406.74,113.69,404.06,111.68Z"/><path d="M485.75,108.51a24.82,24.82,0,0,0-8.21,1.51A51.12,51.12,0,0,0,468,114.7a18.91,18.91,0,0,0-6.19-4.54,17.84,17.84,0,0,0-7.5-1.65,23.2,23.2,0,0,0-7,1.15,64.73,64.73,0,0,0-9.59,4.18,5.34,5.34,0,0,1,.08-.94,13.3,13.3,0,0,0,.07-1.51,11.55,11.55,0,0,1,.07-1.52,6.19,6.19,0,0,0,.07-.93,6.64,6.64,0,0,0-1.15.14c-.48.1-1.35.29-2.6.58q-4.6.86-7.06,1.22c-1.63.24-3,.41-4.18.51v.14a4.59,4.59,0,0,1,3.9,2.67c.76,1.58,1.15,4.3,1.15,8.14q0,4.78-.25,12.61h9.33q.3-7.81.86-18.66a37.58,37.58,0,0,1,5.69-1.59,28.72,28.72,0,0,1,5.41-.57c3.45,0,6.09.93,7.92,2.81s2.74,4.58,2.74,8.14c0,2.61-.09,5.91-.26,9.87h8.88q.27-7.69.74-18.09a37.73,37.73,0,0,1,6.06-2,26,26,0,0,1,6.05-.72q4.89,0,7.35,2.88t2.45,8.79q0,2.16-.15,5.55c0,.93-.09,2.14-.14,3.6h9.37c.09-3.61.16-6.14.21-7.57s.07-2.59.07-3.46q0-7.48-3.82-11.45T485.75,108.51Z"/><path d="M513.42,112v.15c2.4.09,4.11.84,5.12,2.23s1.51,3.87,1.51,7.42q.13,3.83-.16,13.19h9.2c0-1,.07-2,.11-3q.49-13.75,1.08-23.56-6.63,1.74-10.3,2.52A58.87,58.87,0,0,1,513.42,112Z"/><path d="M580.93,121.47c0-.76-.12-1.92-.22-3.45-.1-2.12-.15-3.65-.15-4.62a20.32,20.32,0,0,1,.15-2.59,8.35,8.35,0,0,1-1.37-.14c-.53-.1-1.37-.29-2.52-.58a46.92,46.92,0,0,0-5.55-1.15,35.82,35.82,0,0,0-4.54-.29q-8.79,0-14.41,4.83a15.85,15.85,0,0,0-5.62,12.61c0,3.65,1,6.53,3.1,8.64l.23.22h26.25a55.67,55.67,0,0,0-11.57-4.4q-6.19-1.73-8.35-3.53a6.45,6.45,0,0,1-2.16-5.26,8.24,8.24,0,0,1,3.38-6.91,13.93,13.93,0,0,1,8.72-2.6,14.7,14.7,0,0,1,9.51,3.39,12.71,12.71,0,0,1,4.9,8H581C581,123,581,122.24,580.93,121.47Z"/></svg>